<svg width="38" height="85" viewBox="0 0 38 85" fill="none" xmlns="http://www.w3.org/2000/svg">
<path d="M8.09274 18.1791C9.4085 21.0291 10.1815 22.8881 9.76176 23.1941C9.34198 23.5002 7.87141 22.1777 5.95282 19.5991C4.83794 18.0741 3.81379 16.4848 2.88566 14.8395C2.35555 13.8989 1.82544 12.9047 1.30797 11.8537L0.534909 10.2094C0.255394 9.71143 0.0862416 9.1592 0.0389254 8.59015C-0.0083908 8.02109 0.0672379 7.44852 0.260679 6.91127C0.482868 6.41088 0.840333 5.98246 1.29283 5.67423C1.52163 5.52349 1.76229 5.39158 2.01244 5.27979L2.57108 5.04632C3.08237 4.83807 3.57789 4.62035 4.06394 4.41842C5.04235 4.0398 5.9955 3.6675 6.90131 3.32043C8.72556 2.62314 10.3825 2.06152 11.8438 1.6293C14.678 0.786939 16.5148 0.462076 16.7325 1.01125C16.9502 1.56042 15.4447 2.67432 12.885 4.18579C11.5973 4.93679 10.0476 5.76666 8.31486 6.6691C7.48795 7.06352 6.61368 7.48317 5.71732 7.92177C7.56369 8.21145 9.37458 8.69399 11.1203 9.36147C13.2531 10.1665 15.3025 11.1772 17.2395 12.3793C20.0234 14.0332 22.599 16.0148 24.9111 18.2818C31.3857 24.7176 35.624 33.0614 37.0025 42.0857C37.7722 47.0309 37.7216 52.0692 36.8526 56.9979C36.0378 61.6528 34.4364 66.1351 32.1173 70.2527C31.5701 71.213 30.9749 72.1451 30.3338 73.0455C30.015 73.4874 29.7215 73.9229 29.3238 74.371C28.9261 74.8191 28.6262 75.2293 28.2885 75.5954C26.9193 77.0264 25.3997 78.3055 23.756 79.4106C21.0652 81.3098 18.1028 82.7917 14.9692 83.806C9.67641 85.4371 6.20484 84.9633 6.20803 84.654C6.21122 84.3447 9.50613 84.0579 14.3382 81.9786C17.164 80.7765 19.8208 79.2108 22.2413 77.3211C23.6704 76.2048 24.9828 74.9466 26.1584 73.5659C26.4607 73.2144 26.7452 72.8478 27.0106 72.4677C27.2757 72.0795 27.5283 71.6408 27.7997 71.2243C28.3584 70.4006 28.813 69.4822 29.3117 68.5797C31.2669 64.6995 32.5754 60.5262 33.1854 56.2243C33.8168 51.753 33.7363 47.21 32.947 42.7638C31.5223 34.8171 27.676 27.505 21.9346 21.8289C18.4295 18.3362 14.315 15.5141 9.79432 13.502C7.78718 12.6623 6.21555 12.0625 5.05418 11.6553L5.7578 13.2365L8.06118 18.2138" fill="white"/>
</svg>
